<?xml version="1.0" encoding="UTF-8" standalone="no"?><!DOCTYPE svg PUBLIC "-//W3C//DTD SVG 1.1//EN" "http://www.w3.org/Graphics/SVG/1.1/DTD/svg11.dtd"><!-- Generated by graphviz version 2.40.1 (20161225.0304)
 --><!-- Title: ImpactMapping Pages: 1 --><svg xmlns="http://www.w3.org/2000/svg" xmlns:xlink="http://www.w3.org/1999/xlink" width="1298pt" height="611pt" viewBox="0.00 0.00 1297.91 611.00">
<g id="graph0" class="graph" transform="scale(1 1) rotate(0) translate(4 607)">
<title>ImpactMapping</title>
<polygon fill="#ffffff" stroke="transparent" points="-4,4 -4,-607 1293.9066,-607 1293.9066,4 -4,4"/>
<!-- Goals_1 -->
<g id="node1" class="node">
<title>Goals_1</title>
<polygon fill="#add8e6" stroke="#add8e6" points="239.4309,-144 16.8287,-144 16.8287,-108 239.4309,-108 239.4309,-144"/>
<text text-anchor="middle" x="128.1298" y="-121.8" font-family="Times,serif" font-size="14.00" fill="#000000">Meta 1: Reducir accidentes laborales</text>
</g>
<!-- Actors_1 -->
<g id="node2" class="node">
<title>Actors_1</title>
<polygon fill="#add8e6" stroke="#add8e6" points="391.6116,-144 292.475,-144 292.475,-108 391.6116,-108 391.6116,-144"/>
<text text-anchor="middle" x="342.0433" y="-121.8" font-family="Times,serif" font-size="14.00" fill="#000000">Actores (Who)</text>
</g>
<!-- Goals_1&#45;&gt;Actors_1 -->
<g id="edge1" class="edge">
<title>Goals_1-&gt;Actors_1</title>
<path fill="none" stroke="#000000" d="M239.4724,-126C254.2765,-126 268.9685,-126 282.4112,-126"/>
<polygon fill="#000000" stroke="#000000" points="282.4286,-129.5001 292.4285,-126 282.4285,-122.5001 282.4286,-129.5001"/>
</g>
<!-- Obreros_1 -->
<g id="node5" class="node">
<title>Obreros_1</title>
<polygon fill="#add8e6" stroke="#add8e6" points="536.9783,-225 475.8041,-225 475.8041,-189 536.9783,-189 536.9783,-225"/>
<text text-anchor="middle" x="506.3912" y="-202.8" font-family="Times,serif" font-size="14.00" fill="#000000">Obreros</text>
</g>
<!-- Actors_1&#45;&gt;Obreros_1 -->
<g id="edge2" class="edge">
<title>Actors_1-&gt;Obreros_1</title>
<path fill="none" stroke="#000000" d="M367.4293,-144.1662C384.0501,-155.5009 406.5566,-169.8189 427.827,-180 439.8371,-185.7486 453.4023,-190.8624 465.839,-195.0517"/>
<polygon fill="#000000" stroke="#000000" points="464.9274,-198.4357 475.5198,-198.2076 467.097,-191.7804 464.9274,-198.4357"/>
</g>
<!-- JefesSeguridad_1 -->
<g id="node6" class="node">
<title>JefesSeguridad_1</title>
<polygon fill="#add8e6" stroke="#add8e6" points="566.8478,-171 445.9346,-171 445.9346,-135 566.8478,-135 566.8478,-171"/>
<text text-anchor="middle" x="506.3912" y="-148.8" font-family="Times,serif" font-size="14.00" fill="#000000">Jefes de Seguridad</text>
</g>
<!-- Actors_1&#45;&gt;JefesSeguridad_1 -->
<g id="edge3" class="edge">
<title>Actors_1-&gt;JefesSeguridad_1</title>
<path fill="none" stroke="#000000" d="M391.7991,-134.1742C405.6162,-136.4441 420.8897,-138.9533 435.6601,-141.3799"/>
<polygon fill="#000000" stroke="#000000" points="435.3462,-144.8752 445.7813,-143.0427 436.481,-137.9678 435.3462,-144.8752"/>
</g>
<!-- Empresas_1 -->
<g id="node7" class="node">
<title>Empresas_1</title>
<polygon fill="#add8e6" stroke="#add8e6" points="582.0711,-117 430.7113,-117 430.7113,-81 582.0711,-81 582.0711,-117"/>
<text text-anchor="middle" x="506.3912" y="-94.8" font-family="Times,serif" font-size="14.00" fill="#000000">Empresas Constructoras</text>
</g>
<!-- Actors_1&#45;&gt;Empresas_1 -->
<g id="edge4" class="edge">
<title>Actors_1-&gt;Empresas_1</title>
<path fill="none" stroke="#000000" d="M391.7991,-117.8258C400.8445,-116.3398 410.5139,-114.7513 420.2578,-113.1505"/>
<polygon fill="#000000" stroke="#000000" points="421.1156,-116.5566 430.4159,-111.4817 419.9807,-109.6492 421.1156,-116.5566"/>
</g>
<!-- Reguladores_1 -->
<g id="node8" class="node">
<title>Reguladores_1</title>
<polygon fill="#add8e6" stroke="#add8e6" points="585.0197,-63 427.7627,-63 427.7627,-27 585.0197,-27 585.0197,-63"/>
<text text-anchor="middle" x="506.3912" y="-40.8" font-family="Times,serif" font-size="14.00" fill="#000000">Organismos Reguladores</text>
</g>
<!-- Actors_1&#45;&gt;Reguladores_1 -->
<g id="edge5" class="edge">
<title>Actors_1-&gt;Reguladores_1</title>
<path fill="none" stroke="#000000" d="M367.4293,-107.8338C384.0501,-96.4991 406.5566,-82.1811 427.827,-72 431.559,-70.2137 435.4412,-68.4887 439.393,-66.8336"/>
<polygon fill="#000000" stroke="#000000" points="440.7219,-70.0717 448.7023,-63.103 438.1179,-63.574 440.7219,-70.0717"/>
</g>
<!-- Impact_1 -->
<g id="node3" class="node">
<title>Impact_1</title>
<polygon fill="#add8e6" stroke="#add8e6" points="722.8135,-144 621.0027,-144 621.0027,-108 722.8135,-108 722.8135,-144"/>
<text text-anchor="middle" x="671.9081" y="-121.8" font-family="Times,serif" font-size="14.00" fill="#000000">Impacto (How)</text>
</g>
<!-- Deliverable_1 -->
<g id="node4" class="node">
<title>Deliverable_1</title>
<polygon fill="#add8e6" stroke="#add8e6" points="930.6655,-252 805.2175,-252 805.2175,-216 930.6655,-216 930.6655,-252"/>
<text text-anchor="middle" x="867.9415" y="-229.8" font-family="Times,serif" font-size="14.00" fill="#000000">Entregables (What)</text>
</g>
<!-- Impact_1&#45;&gt;Deliverable_1 -->
<g id="edge14" class="edge">
<title>Impact_1-&gt;Deliverable_1</title>
<path fill="none" stroke="#000000" d="M686.5816,-144.3054C702.4573,-162.8757 729.471,-191.0849 758.8608,-207 770.0285,-213.0475 782.57,-217.7653 795.0644,-221.4386"/>
<polygon fill="#000000" stroke="#000000" points="794.4786,-224.9067 805.0475,-224.166 796.3235,-218.1542 794.4786,-224.9067"/>
</g>
<!-- ImpactObreros_1 -->
<g id="node9" class="node">
<title>ImpactObreros_1</title>
<polygon fill="#add8e6" stroke="#add8e6" points="977.103,-198 758.78,-198 758.78,-162 977.103,-162 977.103,-198"/>
<text text-anchor="middle" x="867.9415" y="-175.8" font-family="Times,serif" font-size="14.00" fill="#000000">Mayor conciencia en el uso del EPP</text>
</g>
<!-- Impact_1&#45;&gt;ImpactObreros_1 -->
<g id="edge10" class="edge">
<title>Impact_1-&gt;ImpactObreros_1</title>
<path fill="none" stroke="#000000" d="M723.2572,-142.4896C734.924,-146.084 747.2887,-149.7741 758.8608,-153 766.6098,-155.1601 774.6925,-157.3249 782.8004,-159.4367"/>
<polygon fill="#000000" stroke="#000000" points="782.125,-162.8769 792.682,-161.9826 783.8715,-156.0983 782.125,-162.8769"/>
</g>
<!-- ImpactJefes_1 -->
<g id="node10" class="node">
<title>ImpactJefes_1</title>
<polygon fill="#add8e6" stroke="#add8e6" points="971.6158,-144 764.2672,-144 764.2672,-108 971.6158,-108 971.6158,-144"/>
<text text-anchor="middle" x="867.9415" y="-121.8" font-family="Times,serif" font-size="14.00" fill="#000000">Mejora en la supervisión del EPP</text>
</g>
<!-- Impact_1&#45;&gt;ImpactJefes_1 -->
<g id="edge11" class="edge">
<title>Impact_1-&gt;ImpactJefes_1</title>
<path fill="none" stroke="#000000" d="M722.9018,-126C732.5305,-126 742.9525,-126 753.6403,-126"/>
<polygon fill="#000000" stroke="#000000" points="753.9516,-129.5001 763.9516,-126 753.9516,-122.5001 753.9516,-129.5001"/>
</g>
<!-- ImpactEmpresas_1 -->
<g id="node11" class="node">
<title>ImpactEmpresas_1</title>
<polygon fill="#add8e6" stroke="#add8e6" points="947.4865,-90 788.3965,-90 788.3965,-54 947.4865,-54 947.4865,-90"/>
<text text-anchor="middle" x="867.9415" y="-67.8" font-family="Times,serif" font-size="14.00" fill="#000000">Reducción de accidentes</text>
</g>
<!-- Impact_1&#45;&gt;ImpactEmpresas_1 -->
<g id="edge12" class="edge">
<title>Impact_1-&gt;ImpactEmpresas_1</title>
<path fill="none" stroke="#000000" d="M723.2572,-109.5104C734.924,-105.916 747.2887,-102.2259 758.8608,-99 766.6098,-96.8399 774.6925,-94.6751 782.8004,-92.5633"/>
<polygon fill="#000000" stroke="#000000" points="783.8715,-95.9017 792.682,-90.0174 782.125,-89.1231 783.8715,-95.9017"/>
</g>
<!-- ImpactReguladores_1 -->
<g id="node12" class="node">
<title>ImpactReguladores_1</title>
<polygon fill="#add8e6" stroke="#add8e6" points="976.4549,-36 759.4281,-36 759.4281,0 976.4549,0 976.4549,-36"/>
<text text-anchor="middle" x="867.9415" y="-13.8" font-family="Times,serif" font-size="14.00" fill="#000000">Mayor cumplimiento de normativas</text>
</g>
<!-- Impact_1&#45;&gt;ImpactReguladores_1 -->
<g id="edge13" class="edge">
<title>Impact_1-&gt;ImpactReguladores_1</title>
<path fill="none" stroke="#000000" d="M686.5816,-107.6946C702.4573,-89.1243 729.471,-60.9151 758.8608,-45 762.1873,-43.1986 765.6357,-41.5152 769.1685,-39.9423"/>
<polygon fill="#000000" stroke="#000000" points="770.7705,-43.0681 778.6911,-36.0314 768.1111,-36.5929 770.7705,-43.0681"/>
</g>
<!-- Entregable1_1 -->
<g id="node13" class="node">
<title>Entregable1_1</title>
<polygon fill="#add8e6" stroke="#add8e6" points="1242.1785,-333 1060.7503,-333 1060.7503,-297 1242.1785,-297 1242.1785,-333"/>
<text text-anchor="middle" x="1151.4644" y="-310.8" font-family="Times,serif" font-size="14.00" fill="#000000">Notificaciones en tiempo real</text>
</g>
<!-- Deliverable_1&#45;&gt;Entregable1_1 -->
<g id="edge15" class="edge">
<title>Deliverable_1-&gt;Entregable1_1</title>
<path fill="none" stroke="#000000" d="M930.5864,-244.9588C946.1838,-248.9066 962.5695,-254.1416 977.0222,-261 995.091,-269.5744 994.7446,-279.8803 1013.0222,-288 1024.8813,-293.2683 1037.7629,-297.5125 1050.7355,-300.9308"/>
<polygon fill="#000000" stroke="#000000" points="1050.11,-304.3815 1060.658,-303.387 1051.7921,-297.5866 1050.11,-304.3815"/>
</g>
<!-- Entregable2_1 -->
<g id="node14" class="node">
<title>Entregable2_1</title>
<polygon fill="#add8e6" stroke="#add8e6" points="1265.6037,-279 1037.3251,-279 1037.3251,-243 1265.6037,-243 1265.6037,-279"/>
<text text-anchor="middle" x="1151.4644" y="-256.8" font-family="Times,serif" font-size="14.00" fill="#000000">Reportes automáticos de infracciones</text>
</g>
<!-- Deliverable_1&#45;&gt;Entregable2_1 -->
<g id="edge16" class="edge">
<title>Deliverable_1-&gt;Entregable2_1</title>
<path fill="none" stroke="#000000" d="M930.8644,-239.9922C959.177,-242.6884 993.6414,-245.9705 1026.8343,-249.1314"/>
<polygon fill="#000000" stroke="#000000" points="1026.7997,-252.6439 1037.0865,-250.1077 1027.4633,-245.6754 1026.7997,-252.6439"/>
</g>
<!-- Entregable3_1 -->
<g id="node15" class="node">
<title>Entregable3_1</title>
<polygon fill="#add8e6" stroke="#add8e6" points="1236.0324,-225 1066.8964,-225 1066.8964,-189 1236.0324,-189 1236.0324,-225"/>
<text text-anchor="middle" x="1151.4644" y="-202.8" font-family="Times,serif" font-size="14.00" fill="#000000">Alertas visuales y auditivas</text>
</g>
<!-- Deliverable_1&#45;&gt;Entregable3_1 -->
<g id="edge17" class="edge">
<title>Deliverable_1-&gt;Entregable3_1</title>
<path fill="none" stroke="#000000" d="M930.8644,-228.0078C967.7894,-224.4914 1015.178,-219.9786 1056.563,-216.0375"/>
<polygon fill="#000000" stroke="#000000" points="1057.0451,-219.5075 1066.6683,-215.0752 1056.3815,-212.539 1057.0451,-219.5075"/>
</g>
<!-- Entregable4_1 -->
<g id="node16" class="node">
<title>Entregable4_1</title>
<polygon fill="#add8e6" stroke="#add8e6" points="1264.1315,-171 1038.7973,-171 1038.7973,-135 1264.1315,-135 1264.1315,-171"/>
<text text-anchor="middle" x="1151.4644" y="-148.8" font-family="Times,serif" font-size="14.00" fill="#000000">Plataforma de análisis y seguimiento</text>
</g>
<!-- Deliverable_1&#45;&gt;Entregable4_1 -->
<g id="edge18" class="edge">
<title>Deliverable_1-&gt;Entregable4_1</title>
<path fill="none" stroke="#000000" d="M930.5864,-223.0412C946.1838,-219.0934 962.5695,-213.8584 977.0222,-207 995.091,-198.4256 994.7446,-188.1197 1013.0222,-180 1018.1274,-177.732 1023.4221,-175.6539 1028.832,-173.7497"/>
<polygon fill="#000000" stroke="#000000" points="1030.275,-176.9595 1038.6781,-170.5067 1028.0851,-170.3108 1030.275,-176.9595"/>
</g>
<!-- Obreros_1&#45;&gt;Impact_1 -->
<g id="edge6" class="edge">
<title>Obreros_1-&gt;Impact_1</title>
<path fill="none" stroke="#000000" d="M537.2431,-198.1666C551.9924,-193.5009 569.7126,-187.2391 584.9554,-180 602.936,-171.4607 621.8294,-160.0555 637.3941,-149.9274"/>
<polygon fill="#000000" stroke="#000000" points="639.7309,-152.5782 646.1417,-144.1429 635.8699,-146.7393 639.7309,-152.5782"/>
</g>
<!-- JefesSeguridad_1&#45;&gt;Impact_1 -->
<g id="edge7" class="edge">
<title>JefesSeguridad_1-&gt;Impact_1</title>
<path fill="none" stroke="#000000" d="M567.0837,-143.0995C581.2641,-140.7863 596.3768,-138.3211 610.5844,-136.0035"/>
<polygon fill="#000000" stroke="#000000" points="611.4374,-139.4106 620.7434,-134.3463 610.3104,-132.502 611.4374,-139.4106"/>
</g>
<!-- Empresas_1&#45;&gt;Impact_1 -->
<g id="edge8" class="edge">
<title>Empresas_1-&gt;Impact_1</title>
<path fill="none" stroke="#000000" d="M582.3676,-111.3937C591.9788,-112.9615 601.7127,-114.5494 611.0463,-116.0719"/>
<polygon fill="#000000" stroke="#000000" points="610.5592,-119.5386 620.9923,-117.6943 611.6862,-112.6299 610.5592,-119.5386"/>
</g>
<!-- Reguladores_1&#45;&gt;Impact_1 -->
<g id="edge9" class="edge">
<title>Reguladores_1-&gt;Impact_1</title>
<path fill="none" stroke="#000000" d="M564.0616,-63.1418C571.1961,-65.8747 578.3111,-68.8445 584.9554,-72 602.936,-80.5393 621.8294,-91.9445 637.3941,-102.0726"/>
<polygon fill="#000000" stroke="#000000" points="635.8699,-105.2607 646.1417,-107.8571 639.7309,-99.4218 635.8699,-105.2607"/>
</g>
<!-- Goals_2 -->
<g id="node17" class="node">
<title>Goals_2</title>
<polygon fill="#add8e6" stroke="#add8e6" points="256.3895,-414 -.1299,-414 -.1299,-378 256.3895,-378 256.3895,-414"/>
<text text-anchor="middle" x="128.1298" y="-391.8" font-family="Times,serif" font-size="14.00" fill="#000000">Meta 2: Optimizar la gestión de seguridad</text>
</g>
<!-- Actors_2 -->
<g id="node18" class="node">
<title>Actors_2</title>
<polygon fill="#add8e6" stroke="#add8e6" points="391.6116,-414 292.475,-414 292.475,-378 391.6116,-378 391.6116,-414"/>
<text text-anchor="middle" x="342.0433" y="-391.8" font-family="Times,serif" font-size="14.00" fill="#000000">Actores (Who)</text>
</g>
<!-- Goals_2&#45;&gt;Actors_2 -->
<g id="edge19" class="edge">
<title>Goals_2-&gt;Actors_2</title>
<path fill="none" stroke="#000000" d="M256.2691,-396C265.1532,-396 273.8341,-396 282.0534,-396"/>
<polygon fill="#000000" stroke="#000000" points="282.198,-399.5001 292.198,-396 282.198,-392.5001 282.198,-399.5001"/>
</g>
<!-- JefesSeguridad_2 -->
<g id="node21" class="node">
<title>JefesSeguridad_2</title>
<polygon fill="#add8e6" stroke="#add8e6" points="566.8478,-495 445.9346,-495 445.9346,-459 566.8478,-459 566.8478,-495"/>
<text text-anchor="middle" x="506.3912" y="-472.8" font-family="Times,serif" font-size="14.00" fill="#000000">Jefes de Seguridad</text>
</g>
<!-- Actors_2&#45;&gt;JefesSeguridad_2 -->
<g id="edge20" class="edge">
<title>Actors_2-&gt;JefesSeguridad_2</title>
<path fill="none" stroke="#000000" d="M367.4293,-414.1662C384.0501,-425.5009 406.5566,-439.8189 427.827,-450 431.559,-451.7863 435.4412,-453.5113 439.393,-455.1664"/>
<polygon fill="#000000" stroke="#000000" points="438.1179,-458.426 448.7023,-458.897 440.7219,-451.9283 438.1179,-458.426"/>
</g>
<!-- Gerentes_2 -->
<g id="node22" class="node">
<title>Gerentes_2</title>
<polygon fill="#add8e6" stroke="#add8e6" points="577.0597,-441 435.7227,-441 435.7227,-405 577.0597,-405 577.0597,-441"/>
<text text-anchor="middle" x="506.3912" y="-418.8" font-family="Times,serif" font-size="14.00" fill="#000000">Gerentes de Proyectos</text>
</g>
<!-- Actors_2&#45;&gt;Gerentes_2 -->
<g id="edge21" class="edge">
<title>Actors_2-&gt;Gerentes_2</title>
<path fill="none" stroke="#000000" d="M391.7991,-404.1742C402.4675,-405.9268 414.0042,-407.8221 425.5071,-409.7119"/>
<polygon fill="#000000" stroke="#000000" points="425.1492,-413.1999 435.5844,-411.3675 426.2841,-406.2925 425.1492,-413.1999"/>
</g>
<!-- Aseguradoras_2 -->
<g id="node23" class="node">
<title>Aseguradoras_2</title>
<polygon fill="#add8e6" stroke="#add8e6" points="581.7742,-387 431.0082,-387 431.0082,-351 581.7742,-351 581.7742,-387"/>
<text text-anchor="middle" x="506.3912" y="-364.8" font-family="Times,serif" font-size="14.00" fill="#000000">Empresas Aseguradoras</text>
</g>
<!-- Actors_2&#45;&gt;Aseguradoras_2 -->
<g id="edge22" class="edge">
<title>Actors_2-&gt;Aseguradoras_2</title>
<path fill="none" stroke="#000000" d="M391.7991,-387.8258C401.0105,-386.3125 410.8692,-384.6929 420.7946,-383.0623"/>
<polygon fill="#000000" stroke="#000000" points="421.4204,-386.5065 430.7207,-381.4316 420.2855,-379.5991 421.4204,-386.5065"/>
</g>
<!-- Obreros_2 -->
<g id="node24" class="node">
<title>Obreros_2</title>
<polygon fill="#add8e6" stroke="#add8e6" points="536.9783,-333 475.8041,-333 475.8041,-297 536.9783,-297 536.9783,-333"/>
<text text-anchor="middle" x="506.3912" y="-310.8" font-family="Times,serif" font-size="14.00" fill="#000000">Obreros</text>
</g>
<!-- Actors_2&#45;&gt;Obreros_2 -->
<g id="edge23" class="edge">
<title>Actors_2-&gt;Obreros_2</title>
<path fill="none" stroke="#000000" d="M367.4293,-377.8338C384.0501,-366.4991 406.5566,-352.1811 427.827,-342 439.8371,-336.2514 453.4023,-331.1376 465.839,-326.9483"/>
<polygon fill="#000000" stroke="#000000" points="467.097,-330.2196 475.5198,-323.7924 464.9274,-323.5643 467.097,-330.2196"/>
</g>
<!-- Impact_2 -->
<g id="node19" class="node">
<title>Impact_2</title>
<polygon fill="#add8e6" stroke="#add8e6" points="722.8135,-414 621.0027,-414 621.0027,-378 722.8135,-378 722.8135,-414"/>
<text text-anchor="middle" x="671.9081" y="-391.8" font-family="Times,serif" font-size="14.00" fill="#000000">Impacto (How)</text>
</g>
<!-- Deliverable_2 -->
<g id="node20" class="node">
<title>Deliverable_2</title>
<polygon fill="#add8e6" stroke="#add8e6" points="930.6655,-522 805.2175,-522 805.2175,-486 930.6655,-486 930.6655,-522"/>
<text text-anchor="middle" x="867.9415" y="-499.8" font-family="Times,serif" font-size="14.00" fill="#000000">Entregables (What)</text>
</g>
<!-- Impact_2&#45;&gt;Deliverable_2 -->
<g id="edge32" class="edge">
<title>Impact_2-&gt;Deliverable_2</title>
<path fill="none" stroke="#000000" d="M686.5816,-414.3054C702.4573,-432.8757 729.471,-461.0849 758.8608,-477 770.0285,-483.0475 782.57,-487.7653 795.0644,-491.4386"/>
<polygon fill="#000000" stroke="#000000" points="794.4786,-494.9067 805.0475,-494.166 796.3235,-488.1542 794.4786,-494.9067"/>
</g>
<!-- ImpactJefes_2 -->
<g id="node25" class="node">
<title>ImpactJefes_2</title>
<polygon fill="#add8e6" stroke="#add8e6" points="966.211,-468 769.672,-468 769.672,-432 966.211,-432 966.211,-468"/>
<text text-anchor="middle" x="867.9415" y="-445.8" font-family="Times,serif" font-size="14.00" fill="#000000">Mejora en la toma de decisiones</text>
</g>
<!-- Impact_2&#45;&gt;ImpactJefes_2 -->
<g id="edge28" class="edge">
<title>Impact_2-&gt;ImpactJefes_2</title>
<path fill="none" stroke="#000000" d="M723.2572,-412.4896C734.924,-416.084 747.2887,-419.7741 758.8608,-423 766.6098,-425.1601 774.6925,-427.3249 782.8004,-429.4367"/>
<polygon fill="#000000" stroke="#000000" points="782.125,-432.8769 792.682,-431.9826 783.8715,-426.0983 782.125,-432.8769"/>
</g>
<!-- ImpactGerentes_2 -->
<g id="node26" class="node">
<title>ImpactGerentes_2</title>
<polygon fill="#add8e6" stroke="#add8e6" points="935.6823,-414 800.2007,-414 800.2007,-378 935.6823,-378 935.6823,-414"/>
<text text-anchor="middle" x="867.9415" y="-391.8" font-family="Times,serif" font-size="14.00" fill="#000000">Reducción de costos</text>
</g>
<!-- Impact_2&#45;&gt;ImpactGerentes_2 -->
<g id="edge29" class="edge">
<title>Impact_2-&gt;ImpactGerentes_2</title>
<path fill="none" stroke="#000000" d="M722.9018,-396C743.2661,-396 767.1793,-396 789.6498,-396"/>
<polygon fill="#000000" stroke="#000000" points="789.8546,-399.5001 799.8546,-396 789.8546,-392.5001 789.8546,-399.5001"/>
</g>
<!-- ImpactAseguradoras_2 -->
<g id="node27" class="node">
<title>ImpactAseguradoras_2</title>
<polygon fill="#add8e6" stroke="#add8e6" points="968.7678,-360 767.1152,-360 767.1152,-324 968.7678,-324 968.7678,-360"/>
<text text-anchor="middle" x="867.9415" y="-337.8" font-family="Times,serif" font-size="14.00" fill="#000000">Reducción de primas de seguros</text>
</g>
<!-- Impact_2&#45;&gt;ImpactAseguradoras_2 -->
<g id="edge30" class="edge">
<title>Impact_2-&gt;ImpactAseguradoras_2</title>
<path fill="none" stroke="#000000" d="M723.2572,-379.5104C734.924,-375.916 747.2887,-372.2259 758.8608,-369 766.6098,-366.8399 774.6925,-364.6751 782.8004,-362.5633"/>
<polygon fill="#000000" stroke="#000000" points="783.8715,-365.9017 792.682,-360.0174 782.125,-359.1231 783.8715,-365.9017"/>
</g>
<!-- ImpactObreros_2 -->
<g id="node28" class="node">
<title>ImpactObreros_2</title>
<polygon fill="#add8e6" stroke="#add8e6" points="966.1998,-306 769.6832,-306 769.6832,-270 966.1998,-270 966.1998,-306"/>
<text text-anchor="middle" x="867.9415" y="-283.8" font-family="Times,serif" font-size="14.00" fill="#000000">Percepción de mayor seguridad</text>
</g>
<!-- Impact_2&#45;&gt;ImpactObreros_2 -->
<g id="edge31" class="edge">
<title>Impact_2-&gt;ImpactObreros_2</title>
<path fill="none" stroke="#000000" d="M686.5816,-377.6946C702.4573,-359.1243 729.471,-330.9151 758.8608,-315 762.1873,-313.1986 765.6357,-311.5152 769.1685,-309.9423"/>
<polygon fill="#000000" stroke="#000000" points="770.7705,-313.0681 778.6911,-306.0314 768.1111,-306.5929 770.7705,-313.0681"/>
</g>
<!-- Entregable1_2 -->
<g id="node29" class="node">
<title>Entregable1_2</title>
<polygon fill="#add8e6" stroke="#add8e6" points="1266.947,-603 1035.9818,-603 1035.9818,-567 1266.947,-567 1266.947,-603"/>
<text text-anchor="middle" x="1151.4644" y="-580.8" font-family="Times,serif" font-size="14.00" fill="#000000">Dashboards de gestión en tiempo real</text>
</g>
<!-- Deliverable_2&#45;&gt;Entregable1_2 -->
<g id="edge33" class="edge">
<title>Deliverable_2-&gt;Entregable1_2</title>
<path fill="none" stroke="#000000" d="M910.8139,-522.0692C939.3774,-533.5799 977.9686,-548.1299 1013.0222,-558 1021.414,-560.3629 1030.1492,-562.5907 1038.97,-564.6754"/>
<polygon fill="#000000" stroke="#000000" points="1038.4218,-568.1406 1048.9516,-566.9678 1039.9887,-561.3182 1038.4218,-568.1406"/>
</g>
<!-- Entregable2_2 -->
<g id="node30" class="node">
<title>Entregable2_2</title>
<polygon fill="#add8e6" stroke="#add8e6" points="1246.907,-549 1056.0218,-549 1056.0218,-513 1246.907,-513 1246.907,-549"/>
<text text-anchor="middle" x="1151.4644" y="-526.8" font-family="Times,serif" font-size="14.00" fill="#000000">Reportes de análisis de riesgos</text>
</g>
<!-- Deliverable_2&#45;&gt;Entregable2_2 -->
<g id="edge34" class="edge">
<title>Deliverable_2-&gt;Entregable2_2</title>
<path fill="none" stroke="#000000" d="M930.8644,-509.9922C964.56,-513.201 1006.9691,-517.2397 1045.578,-520.9164"/>
<polygon fill="#000000" stroke="#000000" points="1045.5417,-524.4287 1055.8285,-521.8926 1046.2054,-517.4602 1045.5417,-524.4287"/>
</g>
<!-- Entregable3_2 -->
<g id="node31" class="node">
<title>Entregable3_2</title>
<polygon fill="#add8e6" stroke="#add8e6" points="1267.3267,-495 1035.6021,-495 1035.6021,-459 1267.3267,-459 1267.3267,-495"/>
<text text-anchor="middle" x="1151.4644" y="-472.8" font-family="Times,serif" font-size="14.00" fill="#000000">Integración con gestión de proyectos</text>
</g>
<!-- Deliverable_2&#45;&gt;Entregable3_2 -->
<g id="edge35" class="edge">
<title>Deliverable_2-&gt;Entregable3_2</title>
<path fill="none" stroke="#000000" d="M930.8644,-498.0078C958.8074,-495.3468 992.7426,-492.1151 1025.5337,-488.9924"/>
<polygon fill="#000000" stroke="#000000" points="1026.0424,-492.4599 1035.6655,-488.0276 1025.3788,-485.4914 1026.0424,-492.4599"/>
</g>
<!-- Entregable4_2 -->
<g id="node32" class="node">
<title>Entregable4_2</title>
<polygon fill="#add8e6" stroke="#add8e6" points="1289.8488,-441 1013.08,-441 1013.08,-405 1289.8488,-405 1289.8488,-441"/>
<text text-anchor="middle" x="1151.4644" y="-418.8" font-family="Times,serif" font-size="14.00" fill="#000000">Sistema de recompensas por buen uso del EPP</text>
</g>
<!-- Deliverable_2&#45;&gt;Entregable4_2 -->
<g id="edge36" class="edge">
<title>Deliverable_2-&gt;Entregable4_2</title>
<path fill="none" stroke="#000000" d="M930.5864,-493.0412C946.1838,-489.0934 962.5695,-483.8584 977.0222,-477 995.091,-468.4256 994.7446,-458.1197 1013.0222,-450 1017.6589,-447.9402 1022.4518,-446.037 1027.3454,-444.2784"/>
<polygon fill="#000000" stroke="#000000" points="1028.5058,-447.5808 1036.8655,-441.0719 1026.2714,-440.947 1028.5058,-447.5808"/>
</g>
<!-- JefesSeguridad_2&#45;&gt;Impact_2 -->
<g id="edge24" class="edge">
<title>JefesSeguridad_2-&gt;Impact_2</title>
<path fill="none" stroke="#000000" d="M564.0616,-458.8582C571.1961,-456.1253 578.3111,-453.1555 584.9554,-450 602.936,-441.4607 621.8294,-430.0555 637.3941,-419.9274"/>
<polygon fill="#000000" stroke="#000000" points="639.7309,-422.5782 646.1417,-414.1429 635.8699,-416.7393 639.7309,-422.5782"/>
</g>
<!-- Gerentes_2&#45;&gt;Impact_2 -->
<g id="edge25" class="edge">
<title>Gerentes_2-&gt;Impact_2</title>
<path fill="none" stroke="#000000" d="M577.0654,-411.4713C588.367,-409.6277 599.976,-407.734 611.0245,-405.9317"/>
<polygon fill="#000000" stroke="#000000" points="611.6827,-409.3706 620.9887,-404.3062 610.5557,-402.462 611.6827,-409.3706"/>
</g>
<!-- Aseguradoras_2&#45;&gt;Impact_2 -->
<g id="edge26" class="edge">
<title>Aseguradoras_2-&gt;Impact_2</title>
<path fill="none" stroke="#000000" d="M581.8843,-381.3148C591.5267,-382.8878 601.3017,-384.4823 610.6803,-386.0122"/>
<polygon fill="#000000" stroke="#000000" points="610.2433,-389.4871 620.6763,-387.6428 611.3703,-382.5784 610.2433,-389.4871"/>
</g>
<!-- Obreros_2&#45;&gt;Impact_2 -->
<g id="edge27" class="edge">
<title>Obreros_2-&gt;Impact_2</title>
<path fill="none" stroke="#000000" d="M537.2431,-323.8334C551.9924,-328.4991 569.7126,-334.7609 584.9554,-342 602.936,-350.5393 621.8294,-361.9445 637.3941,-372.0726"/>
<polygon fill="#000000" stroke="#000000" points="635.8699,-375.2607 646.1417,-377.8571 639.7309,-369.4218 635.8699,-375.2607"/>
</g>
</g>
</svg>